<svg xmlns="http://www.w3.org/2000/svg" xmlns:xlink="http://www.w3.org/1999/xlink" version="1.1" id="Capa_1" x="0px" y="0px" width="100px" height="100px" viewBox="0 0 476.864 476.864" style="enable-background:new 0 0 476.864 476.864;" xml:space="preserve">
<g>
	<g>
		<path fill="#fff" d="M59.714,419.703c50.958,50.951,103.588,80.942,151.449,33.065c14.769-14.767,20.953-35.718,19.378-58.833    c6.57-36.699,36.475-46.734,36.475-46.734L267,347.157c13.986-4.18,28.882-13.08,41.958-26.16    c20.786-20.783,31.125-46.174,28.429-65.117c-17.473,8.38-34.147,8.948-43.345-0.252c-5.566-5.566-7.53-13.884-6.396-23.448    c0.865-7.222,3.475-15.152,7.75-23.171l7.843-11.968l74.365-75.538l0.036,0.044c0.169-0.196,0.341-0.389,0.501-0.583l2.569-2.606    c8.9-8.007,20.807-9.484,27.238-3.052c0.288,0.288,0.465,0.641,0.726,0.954c0.385-0.966,0.806-1.946,1.258-2.943    c4.685-10.273,12.988-22.017,24.041-33.08c10.082-10.088,20.754-17.905,30.352-22.766c0.931-0.471,1.824-0.87,2.729-1.28    l4.913-4.913c-0.396-3.118,0.092-6.989,2.568-11.604c0,0-8.055-11.193-8.647-18.464c-0.312-3.837-2.637-4.751-4.765-4.772    c-1.912-0.024-3.684,0.651-3.684,0.651s0.678-1.759,0.653-3.673c-0.031-2.138-0.941-4.468-4.769-4.775    c-7.27-0.587-18.47-8.64-18.47-8.64c-4.613,2.473-8.484,2.967-11.598,2.564l-4.913,4.913c-0.409,0.906-0.813,1.797-1.282,2.725    c-4.854,9.596-12.68,20.271-22.767,30.36c-11.057,11.05-22.803,19.358-33.081,24.033c-0.998,0.457-1.98,0.875-2.945,1.258    c0.316,0.261,0.669,0.441,0.957,0.731c5.819,5.815,5.198,16.122-0.89,24.634l-91.429,92.862l-5.559,4.891l-0.068,0.269    c-12.848,6.985-26.165,7.464-33.638-0.008c-10.239-10.239-5.621-31.436,10.291-47.355c1.901-1.897,3.879-3.625,5.895-5.198    c-22.39-9.867-58.218,1.925-86.707,30.412c-14.366,14.367-24.477,30.601-29.737,46.045l-0.016,0.008c0,0-0.03,0.118-0.046,0.156    c-0.187,0.549-0.337,1.096-0.521,1.649c-2.422,7.167-13.762,33.464-48.019,33.668c-0.846,0.009-1.647,0.064-2.529,0.032    c-0.243-0.008-0.461,0.024-0.713,0.008l0.008,0.017c-19.147,0.604-36.293,6.944-48.908,19.564    C-21.733,316.637,8.768,368.753,59.714,419.703z"/>
	</g>
</g>
</svg>