<svg xmlns="http://www.w3.org/2000/svg" xmlns:xlink="http://www.w3.org/1999/xlink" version="1.1" id="Capa_1" x="0px" y="0px" width="100px" height="100px" viewBox="0 0 476.91 476.909" style="enable-background:new 0 0 476.91 476.909;" xml:space="preserve">
<g>
	<g>
		<path fill="#fff" d="M62.802,142.287h121.682c4.45,0,10.95-3.805,13.32-7.999l24.816-41.066H62.802C28.12,93.222,0,121.342,0,156.026v20.779    C13.266,156.086,36.425,142.287,62.802,142.287z"/>
		<path fill="#fff" d="M414.105,67.708H266.913c-8.681,0-19.151,6.125-23.399,13.685l-7.147,11.828l-28.489,47.157    c-4.246,7.558-14.719,13.684-23.393,13.684H62.802C28.12,154.062,0,182.183,0,216.865v115.794v13.737    c0,34.685,28.12,62.805,62.802,62.805h351.303c34.685,0,62.805-28.12,62.805-62.805v-13.737V156.026v-25.515    C476.91,95.829,448.79,67.708,414.105,67.708z M296.411,199.172v96.451c0,4.332,3.52,7.851,7.851,7.851h2.762v58.66    c0,1.082-0.874,1.964-1.964,1.964h-29.102c-1.086,0-1.96-0.882-1.96-1.964v-58.66h3.739c4.34,0,7.851-3.519,7.851-7.851v-96.451    H296.411z M342.212,199.172v96.451c0,4.332,3.519,7.851,7.851,7.851h2.772v58.66c0,1.082-0.882,1.964-1.959,1.964h-29.118    c-1.074,0-1.964-0.882-1.964-1.964v-58.66h3.759c4.336,0,7.847-3.519,7.847-7.851v-96.451H342.212z M396.657,199.172    c1.082,0,1.964,0.878,1.964,1.962v161c0,1.082-0.882,1.964-1.964,1.964h-29.113c-1.074,0-1.964-0.882-1.964-1.964v-58.66h3.755    c4.34,0,7.851-3.519,7.851-7.851v-96.451H396.657z M250.623,199.172v96.451c0,4.332,3.519,7.851,7.851,7.851h2.553v58.66    c0,1.082-0.874,1.964-1.964,1.964h-29.11c-1.084,0-1.961-0.882-1.961-1.964v-58.66h2.653c4.334,0,7.851-3.519,7.851-7.851v-96.451    H250.623z M203.519,199.172v96.451c0,4.332,3.519,7.851,7.851,7.851h3.753v58.66c0,1.082-0.878,1.964-1.964,1.964h-29.108    c-1.082,0-1.963-0.882-1.963-1.964v-58.66h2.657c4.332,0,7.851-3.519,7.851-7.851v-96.451H203.519z M157.62,199.172v96.451    c0,4.332,3.517,7.851,7.851,7.851h3.745v58.66c0,1.082-0.882,1.964-1.961,1.964h-29.11c-1.084,0-1.962-0.882-1.962-1.964v-58.66    h2.651c4.332,0,7.851-3.519,7.851-7.851v-96.451H157.62z M119.567,303.474h3.747v58.66c0,1.082-0.88,1.964-1.964,1.964h-29.11    c-1.084,0-1.962-0.882-1.962-1.964v-161c0-1.084,0.878-1.962,1.962-1.962h19.476v96.451    C111.717,299.955,115.229,303.474,119.567,303.474z"/>
	</g>
</g>
</svg>