<svg xmlns="http://www.w3.org/2000/svg" xmlns:xlink="http://www.w3.org/1999/xlink" version="1.1" id="Capa_1" x="0px" y="0px" viewBox="0 0 52.275 52.275" style="enable-background:new 0 0 52.275 52.275;" xml:space="preserve">
<g>
	<g>
		<path style="fill:#fff;" d="M8.381,41.883l1.632-1.185c0.716,0.334,1.493,0.528,2.3,0.528c1.498,0,2.889-0.596,3.887-1.647    l17.069-13.762c0.982-1.032,1.501-2.385,1.477-3.812c0.338,0.031,0.678,0.059,1.018,0.059c6.083,0,11.031-4.948,11.031-11.031    S41.846,0,35.763,0S24.731,4.949,24.731,11.033c0,0.274,0.024,0.546,0.044,0.819c-0.189-0.02-0.375-0.054-0.567-0.054    c-1.499,0-2.89,0.594-3.943,1.703L7.419,31.171c-0.997,1.048-1.523,2.426-1.482,3.878c0.026,0.919,0.301,1.784,0.748,2.562    l-0.051-0.039l-0.993,1.894c-0.299,0.569-0.16,1.358,0.294,1.817c-0.436,1.698-0.955,4.955,0.532,7.522    c1.034,1.784,2.836,2.896,5.358,3.306c0.683,0.112,1.329,0.164,1.942,0.164c3.081,0,5.379-1.293,7.973-2.75    c3.787-2.128,8.074-4.529,16.524-4.101c0.34,0.039,0.623-0.239,0.64-0.576c0.021-0.336-0.24-0.622-0.574-0.639    c-8.811-0.458-13.448,2.155-17.186,4.256c-3.029,1.703-5.419,3.05-9.124,2.446c-2.141-0.352-3.654-1.262-4.497-2.713    c-1.141-1.965-0.865-4.533-0.517-6.133C7.465,42.211,7.997,42.159,8.381,41.883z M35.763,2.739c4.573,0,8.293,3.72,8.293,8.293    s-3.72,8.293-8.293,8.293c-0.261,0-0.521-0.012-0.779-0.036c-0.429-0.04-2.253-1.61-4.08-3.464c0,0-0.74-0.751-1.654-1.678    c-0.912-0.926-1.712-1.996-1.749-2.392c-0.02-0.24-0.031-0.482-0.031-0.723C27.47,6.459,31.191,2.739,35.763,2.739z M9.411,33.012    l12.847-17.67c0.51-0.535,1.201-0.829,1.947-0.829c0.709,0,1.384,0.27,1.901,0.762l5.073,4.823    c1.096,1.044,1.15,2.769,0.154,3.822L14.264,37.684c-0.51,0.533-1.201,0.828-1.947,0.828c-0.71,0-1.386-0.271-1.903-0.763    l-0.906-0.861c-0.529-0.505-0.834-1.184-0.857-1.91C8.628,34.249,8.889,33.564,9.411,33.012z"/>
		<path style="fill:#fff;" d="M17.649,30.294c0.479,0,0.945-0.207,1.279-0.567l3.209-3.457c0.642-0.692,0.627-1.758-0.035-2.375    c-0.639-0.593-1.753-0.524-2.371,0.145l-3.209,3.456c-0.318,0.343-0.491,0.802-0.474,1.258c0.016,0.434,0.197,0.831,0.508,1.117    C16.851,30.144,17.239,30.294,17.649,30.294z M17.254,28.174l3.21-3.456c0.146-0.157,0.345-0.248,0.546-0.248    c0.111,0,0.272,0.027,0.41,0.156c0.259,0.241,0.251,0.673-0.018,0.963l-3.209,3.457c-0.145,0.156-0.344,0.247-0.545,0.247    c-0.111,0-0.272-0.027-0.413-0.158c-0.115-0.106-0.182-0.257-0.188-0.423C17.04,28.521,17.116,28.324,17.254,28.174z"/>
	</g>
</g>
</svg>